<mxfile host="app.diagrams.net" modified="2022-03-31T16:46:03.736Z" agent="5.0 (X11)" etag="JdIt7MTjC05_nW4XH6bC" version="17.4.0" type="github" pages="2">
  <diagram id="h_tp4di4uuPAFkdl_85X" name="Page-1">
    <mxGraphModel dx="2377" dy="1291" grid="1" gridSize="10" guides="1" tooltips="1" connect="1" arrows="1" fold="1" page="1" pageScale="1" pageWidth="650" pageHeight="400" math="0" shadow="0">
      <root>
        <mxCell id="0" />
        <mxCell id="1" parent="0" />
        <mxCell id="pgWCoFmXFt7M4RTiuyOa-1" value="" style="shape=flexArrow;endArrow=classic;startArrow=classic;html=1;rounded=1;shadow=0;sketch=0;fillColor=#6a00ff;strokeColor=#3700CC;" edge="1" parent="1">
          <mxGeometry width="100" height="100" relative="1" as="geometry">
            <mxPoint x="80" y="114" as="sourcePoint" />
            <mxPoint x="170" y="114" as="targetPoint" />
            <Array as="points">
              <mxPoint x="80" y="274" />
              <mxPoint x="170" y="274" />
            </Array>
          </mxGeometry>
        </mxCell>
        <mxCell id="pgWCoFmXFt7M4RTiuyOa-2" value="" style="rounded=1;whiteSpace=wrap;html=1;fillColor=#d80073;fontColor=#ffffff;strokeColor=#A50040;" vertex="1" parent="1">
          <mxGeometry x="87" y="255" width="76" height="10" as="geometry" />
        </mxCell>
        <mxCell id="pgWCoFmXFt7M4RTiuyOa-4" value="" style="rounded=1;whiteSpace=wrap;html=1;fillColor=#6d8764;fontColor=#ffffff;strokeColor=#3A5431;" vertex="1" parent="1">
          <mxGeometry x="87" y="245" width="76" height="10" as="geometry" />
        </mxCell>
        <mxCell id="pgWCoFmXFt7M4RTiuyOa-5" value="" style="rounded=1;whiteSpace=wrap;html=1;fillColor=#1ba1e2;fontColor=#ffffff;strokeColor=#006EAF;" vertex="1" parent="1">
          <mxGeometry x="87" y="235" width="76" height="10" as="geometry" />
        </mxCell>
        <mxCell id="pgWCoFmXFt7M4RTiuyOa-6" value="" style="rounded=1;whiteSpace=wrap;html=1;fillColor=#60a917;fontColor=#ffffff;strokeColor=#2D7600;" vertex="1" parent="1">
          <mxGeometry x="87" y="225" width="76" height="10" as="geometry" />
        </mxCell>
        <mxCell id="pgWCoFmXFt7M4RTiuyOa-7" value="" style="rounded=1;whiteSpace=wrap;html=1;fillColor=#d80073;fontColor=#ffffff;strokeColor=#A50040;" vertex="1" parent="1">
          <mxGeometry x="87" y="215" width="76" height="10" as="geometry" />
        </mxCell>
        <mxCell id="pgWCoFmXFt7M4RTiuyOa-8" value="" style="rounded=1;whiteSpace=wrap;html=1;fillColor=#6d8764;fontColor=#ffffff;strokeColor=#3A5431;" vertex="1" parent="1">
          <mxGeometry x="87" y="205" width="76" height="10" as="geometry" />
        </mxCell>
        <mxCell id="pgWCoFmXFt7M4RTiuyOa-9" value="" style="rounded=1;whiteSpace=wrap;html=1;fillColor=#1ba1e2;fontColor=#ffffff;strokeColor=#006EAF;" vertex="1" parent="1">
          <mxGeometry x="87" y="195" width="76" height="10" as="geometry" />
        </mxCell>
        <mxCell id="pgWCoFmXFt7M4RTiuyOa-10" value="" style="rounded=1;whiteSpace=wrap;html=1;fillColor=#60a917;fontColor=#ffffff;strokeColor=#2D7600;" vertex="1" parent="1">
          <mxGeometry x="87" y="185" width="76" height="10" as="geometry" />
        </mxCell>
        <mxCell id="pgWCoFmXFt7M4RTiuyOa-11" value="" style="rounded=1;whiteSpace=wrap;html=1;fillColor=#d80073;fontColor=#ffffff;strokeColor=#A50040;" vertex="1" parent="1">
          <mxGeometry x="87" y="175" width="76" height="10" as="geometry" />
        </mxCell>
        <mxCell id="pgWCoFmXFt7M4RTiuyOa-12" value="" style="rounded=1;whiteSpace=wrap;html=1;fillColor=#6d8764;fontColor=#ffffff;strokeColor=#3A5431;" vertex="1" parent="1">
          <mxGeometry x="87" y="165" width="76" height="10" as="geometry" />
        </mxCell>
        <mxCell id="pgWCoFmXFt7M4RTiuyOa-13" value="" style="rounded=1;whiteSpace=wrap;html=1;fillColor=#1ba1e2;fontColor=#ffffff;strokeColor=#006EAF;" vertex="1" parent="1">
          <mxGeometry x="87" y="155" width="76" height="10" as="geometry" />
        </mxCell>
        <mxCell id="pgWCoFmXFt7M4RTiuyOa-14" value="" style="rounded=1;whiteSpace=wrap;html=1;fillColor=#60a917;fontColor=#ffffff;strokeColor=#2D7600;" vertex="1" parent="1">
          <mxGeometry x="87" y="145" width="76" height="10" as="geometry" />
        </mxCell>
        <mxCell id="pgWCoFmXFt7M4RTiuyOa-19" value="&lt;div style=&quot;font-size: 13px&quot; align=&quot;center&quot;&gt;During insertion(push) operation,&lt;br&gt;item will be placed on the&lt;/div&gt;&lt;div style=&quot;font-size: 13px&quot; align=&quot;center&quot;&gt;top of the stack.&lt;br style=&quot;font-size: 13px&quot;&gt;&lt;/div&gt;" style="text;html=1;align=center;verticalAlign=middle;resizable=0;points=[];autosize=1;strokeColor=#6F0000;fillColor=#a20025;fontFamily=Courier New;fontStyle=1;fontSize=13;fontColor=#ffffff;rounded=1;" vertex="1" parent="1">
          <mxGeometry x="260" y="135" width="270" height="50" as="geometry" />
        </mxCell>
        <mxCell id="pgWCoFmXFt7M4RTiuyOa-20" value="&lt;div&gt;During pop operation, item will&lt;br&gt;be removed from the top of the stack.&lt;/div&gt;" style="text;html=1;align=center;verticalAlign=middle;resizable=0;points=[];autosize=1;strokeColor=#6F0000;fillColor=#a20025;fontFamily=Courier New;fontStyle=1;fontSize=13;fontColor=#ffffff;rounded=1;" vertex="1" parent="1">
          <mxGeometry x="260" y="220" width="300" height="40" as="geometry" />
        </mxCell>
        <mxCell id="pgWCoFmXFt7M4RTiuyOa-21" value="" style="curved=1;endArrow=classic;html=1;rounded=1;shadow=0;sketch=0;fontFamily=Courier New;fontSize=13;entryX=0.158;entryY=-0.4;entryDx=0;entryDy=0;exitX=0.222;exitY=-0.04;exitDx=0;exitDy=0;exitPerimeter=0;strokeWidth=2;entryPerimeter=0;" edge="1" parent="1" source="pgWCoFmXFt7M4RTiuyOa-19" target="pgWCoFmXFt7M4RTiuyOa-14">
          <mxGeometry width="50" height="50" relative="1" as="geometry">
            <mxPoint x="220" y="235" as="sourcePoint" />
            <mxPoint x="270" y="185" as="targetPoint" />
            <Array as="points">
              <mxPoint x="310" y="85" />
              <mxPoint x="190" y="65" />
            </Array>
          </mxGeometry>
        </mxCell>
        <mxCell id="pgWCoFmXFt7M4RTiuyOa-22" value="" style="curved=1;endArrow=classic;html=1;rounded=1;shadow=0;sketch=0;fontFamily=Courier New;fontSize=13;strokeWidth=2;entryX=0.133;entryY=0;entryDx=0;entryDy=0;entryPerimeter=0;exitX=0.75;exitY=0;exitDx=0;exitDy=0;" edge="1" parent="1" source="pgWCoFmXFt7M4RTiuyOa-14" target="pgWCoFmXFt7M4RTiuyOa-20">
          <mxGeometry width="50" height="50" relative="1" as="geometry">
            <mxPoint x="210" y="175" as="sourcePoint" />
            <mxPoint x="270" y="185" as="targetPoint" />
            <Array as="points">
              <mxPoint x="200" y="55" />
              <mxPoint x="250" y="215" />
            </Array>
          </mxGeometry>
        </mxCell>
        <mxCell id="pgWCoFmXFt7M4RTiuyOa-23" value="Figure: A visualization for stack pop and push operation." style="text;html=1;align=center;verticalAlign=middle;resizable=0;points=[];autosize=1;strokeColor=none;fillColor=none;fontSize=13;fontFamily=Courier New;" vertex="1" parent="1">
          <mxGeometry x="87" y="325" width="460" height="20" as="geometry" />
        </mxCell>
      </root>
    </mxGraphModel>
  </diagram>
  <diagram id="XYoninfBT0117oQ229g6" name="Page-2">
    <mxGraphModel dx="1482" dy="452" grid="1" gridSize="10" guides="1" tooltips="1" connect="1" arrows="1" fold="1" page="1" pageScale="1" pageWidth="650" pageHeight="400" math="0" shadow="0">
      <root>
        <mxCell id="0" />
        <mxCell id="1" parent="0" />
        <mxCell id="94h0a9RZYvf93PasNqo--14" value="&lt;div style=&quot;font-size: 13px&quot; align=&quot;center&quot;&gt;During insertion(enqueue)&lt;/div&gt;&lt;div style=&quot;font-size: 13px&quot; align=&quot;center&quot;&gt;operation, item will be&lt;/div&gt;&lt;div style=&quot;font-size: 13px&quot; align=&quot;center&quot;&gt;placed&amp;nbsp; to the&lt;br&gt;back of the queue.&lt;br style=&quot;font-size: 13px&quot;&gt;&lt;/div&gt;" style="text;html=1;align=center;verticalAlign=middle;resizable=0;points=[];autosize=1;strokeColor=#6F0000;fillColor=#a20025;fontFamily=Courier New;fontStyle=1;fontSize=13;fontColor=#ffffff;rounded=1;" vertex="1" parent="1">
          <mxGeometry x="-80" y="220" width="210" height="70" as="geometry" />
        </mxCell>
        <mxCell id="94h0a9RZYvf93PasNqo--15" value="&lt;div&gt;During pop (dequeue) operation,&lt;br&gt;item will be removed from &lt;br&gt;the front of the queue.&lt;/div&gt;" style="text;html=1;align=center;verticalAlign=middle;resizable=0;points=[];autosize=1;strokeColor=#6F0000;fillColor=#a20025;fontFamily=Courier New;fontStyle=1;fontSize=13;fontColor=#ffffff;rounded=1;" vertex="1" parent="1">
          <mxGeometry x="325" y="240" width="260" height="50" as="geometry" />
        </mxCell>
        <mxCell id="94h0a9RZYvf93PasNqo--16" value="" style="curved=1;endArrow=none;html=1;rounded=1;shadow=0;sketch=0;fontFamily=Courier New;fontSize=13;strokeWidth=2;entryX=0.5;entryY=0;entryDx=0;entryDy=0;startArrow=classic;startFill=1;endFill=0;exitX=0.343;exitY=-0.08;exitDx=0;exitDy=0;exitPerimeter=0;" edge="1" parent="1" source="94h0a9RZYvf93PasNqo--15" target="94h0a9RZYvf93PasNqo--13">
          <mxGeometry width="50" height="50" relative="1" as="geometry">
            <mxPoint x="440" y="180" as="sourcePoint" />
            <mxPoint x="345" y="220" as="targetPoint" />
            <Array as="points">
              <mxPoint x="380" y="200" />
              <mxPoint x="320" y="190" />
            </Array>
          </mxGeometry>
        </mxCell>
        <mxCell id="94h0a9RZYvf93PasNqo--17" value="" style="curved=1;endArrow=none;html=1;rounded=1;shadow=0;sketch=0;fontFamily=Courier New;fontSize=13;strokeWidth=2;exitX=0.5;exitY=1;exitDx=0;exitDy=0;entryX=0.538;entryY=-0.043;entryDx=0;entryDy=0;entryPerimeter=0;startArrow=classic;startFill=1;endFill=0;" edge="1" parent="1" source="94h0a9RZYvf93PasNqo--2" target="94h0a9RZYvf93PasNqo--14">
          <mxGeometry width="50" height="50" relative="1" as="geometry">
            <mxPoint x="210" y="175" as="sourcePoint" />
            <mxPoint x="20" y="180" as="targetPoint" />
            <Array as="points">
              <mxPoint x="90" y="150" />
            </Array>
          </mxGeometry>
        </mxCell>
        <mxCell id="94h0a9RZYvf93PasNqo--18" value="Figure: A visualization for queue &#39;enqueue&#39; and &#39;dequeue&#39; operation." style="text;html=1;align=center;verticalAlign=middle;resizable=0;points=[];autosize=1;strokeColor=none;fillColor=none;fontSize=13;fontFamily=Courier New;" vertex="1" parent="1">
          <mxGeometry x="-52" y="330" width="550" height="20" as="geometry" />
        </mxCell>
        <mxCell id="94h0a9RZYvf93PasNqo--19" value="" style="group;direction=west;rotation=90;" vertex="1" connectable="0" parent="1">
          <mxGeometry x="185" y="180" width="76" height="120" as="geometry" />
        </mxCell>
        <mxCell id="94h0a9RZYvf93PasNqo--2" value="" style="rounded=1;whiteSpace=wrap;html=1;fillColor=#d80073;fontColor=#ffffff;strokeColor=#A50040;rotation=90;" vertex="1" parent="94h0a9RZYvf93PasNqo--19">
          <mxGeometry x="-55" y="55" width="76" height="10" as="geometry" />
        </mxCell>
        <mxCell id="94h0a9RZYvf93PasNqo--3" value="" style="rounded=1;whiteSpace=wrap;html=1;fillColor=#6d8764;fontColor=#ffffff;strokeColor=#3A5431;rotation=90;" vertex="1" parent="94h0a9RZYvf93PasNqo--19">
          <mxGeometry x="-45" y="55" width="76" height="10" as="geometry" />
        </mxCell>
        <mxCell id="94h0a9RZYvf93PasNqo--4" value="" style="rounded=1;whiteSpace=wrap;html=1;fillColor=#1ba1e2;fontColor=#ffffff;strokeColor=#006EAF;rotation=90;" vertex="1" parent="94h0a9RZYvf93PasNqo--19">
          <mxGeometry x="-35" y="55" width="76" height="10" as="geometry" />
        </mxCell>
        <mxCell id="94h0a9RZYvf93PasNqo--5" value="" style="rounded=1;whiteSpace=wrap;html=1;fillColor=#60a917;fontColor=#ffffff;strokeColor=#2D7600;rotation=90;" vertex="1" parent="94h0a9RZYvf93PasNqo--19">
          <mxGeometry x="-25" y="55" width="76" height="10" as="geometry" />
        </mxCell>
        <mxCell id="94h0a9RZYvf93PasNqo--6" value="" style="rounded=1;whiteSpace=wrap;html=1;fillColor=#d80073;fontColor=#ffffff;strokeColor=#A50040;rotation=90;" vertex="1" parent="94h0a9RZYvf93PasNqo--19">
          <mxGeometry x="-15" y="55" width="76" height="10" as="geometry" />
        </mxCell>
        <mxCell id="94h0a9RZYvf93PasNqo--7" value="" style="rounded=1;whiteSpace=wrap;html=1;fillColor=#6d8764;fontColor=#ffffff;strokeColor=#3A5431;rotation=90;" vertex="1" parent="94h0a9RZYvf93PasNqo--19">
          <mxGeometry x="-5" y="55" width="76" height="10" as="geometry" />
        </mxCell>
        <mxCell id="94h0a9RZYvf93PasNqo--8" value="" style="rounded=1;whiteSpace=wrap;html=1;fillColor=#1ba1e2;fontColor=#ffffff;strokeColor=#006EAF;rotation=90;" vertex="1" parent="94h0a9RZYvf93PasNqo--19">
          <mxGeometry x="5" y="55" width="76" height="10" as="geometry" />
        </mxCell>
        <mxCell id="94h0a9RZYvf93PasNqo--9" value="" style="rounded=1;whiteSpace=wrap;html=1;fillColor=#60a917;fontColor=#ffffff;strokeColor=#2D7600;rotation=90;" vertex="1" parent="94h0a9RZYvf93PasNqo--19">
          <mxGeometry x="15" y="55" width="76" height="10" as="geometry" />
        </mxCell>
        <mxCell id="94h0a9RZYvf93PasNqo--10" value="" style="rounded=1;whiteSpace=wrap;html=1;fillColor=#d80073;fontColor=#ffffff;strokeColor=#A50040;rotation=90;" vertex="1" parent="94h0a9RZYvf93PasNqo--19">
          <mxGeometry x="25" y="55" width="76" height="10" as="geometry" />
        </mxCell>
        <mxCell id="94h0a9RZYvf93PasNqo--11" value="" style="rounded=1;whiteSpace=wrap;html=1;fillColor=#6d8764;fontColor=#ffffff;strokeColor=#3A5431;rotation=90;" vertex="1" parent="94h0a9RZYvf93PasNqo--19">
          <mxGeometry x="35" y="55" width="76" height="10" as="geometry" />
        </mxCell>
        <mxCell id="94h0a9RZYvf93PasNqo--12" value="" style="rounded=1;whiteSpace=wrap;html=1;fillColor=#1ba1e2;fontColor=#ffffff;strokeColor=#006EAF;rotation=90;" vertex="1" parent="94h0a9RZYvf93PasNqo--19">
          <mxGeometry x="45" y="55" width="76" height="10" as="geometry" />
        </mxCell>
        <mxCell id="94h0a9RZYvf93PasNqo--13" value="" style="rounded=1;whiteSpace=wrap;html=1;fillColor=#60a917;fontColor=#ffffff;strokeColor=#2D7600;rotation=90;" vertex="1" parent="94h0a9RZYvf93PasNqo--19">
          <mxGeometry x="55" y="55" width="76" height="10" as="geometry" />
        </mxCell>
        <mxCell id="94h0a9RZYvf93PasNqo--23" value="" style="shape=flexArrow;endArrow=classic;html=1;rounded=1;shadow=0;sketch=0;fontFamily=Courier New;fontSize=13;strokeWidth=2;fillColor=#6a00ff;strokeColor=#3700CC;" edge="1" parent="1">
          <mxGeometry width="50" height="50" relative="1" as="geometry">
            <mxPoint x="155" y="190" as="sourcePoint" />
            <mxPoint x="318" y="190" as="targetPoint" />
          </mxGeometry>
        </mxCell>
        <mxCell id="94h0a9RZYvf93PasNqo--24" value="" style="shape=flexArrow;endArrow=classic;html=1;rounded=1;shadow=0;sketch=0;fontFamily=Courier New;fontSize=13;strokeWidth=2;startArrow=none;startFill=0;fillColor=#6a00ff;strokeColor=#3700CC;" edge="1" parent="1">
          <mxGeometry width="50" height="50" relative="1" as="geometry">
            <mxPoint x="155" y="290" as="sourcePoint" />
            <mxPoint x="318" y="290" as="targetPoint" />
          </mxGeometry>
        </mxCell>
      </root>
    </mxGraphModel>
  </diagram>
</mxfile>
